<mxfile host="app.diagrams.net" agent="Mozilla/5.0 (Macintosh; Intel Mac OS X 10_15_7) AppleWebKit/605.1.15 (KHTML, like Gecko) Version/18.1 Safari/605.1.15" version="24.8.6">
  <diagram name="第 1 页" id="uQV4d3QOdv5ZGM-Fy3Eu">
    <mxGraphModel dx="1224" dy="1266" grid="0" gridSize="10" guides="1" tooltips="1" connect="1" arrows="1" fold="1" page="0" pageScale="1" pageWidth="827" pageHeight="1169" math="0" shadow="0">
      <root>
        <mxCell id="0" />
        <mxCell id="1" parent="0" />
        <mxCell id="3i4N--CUoDsbIN8EMX7h-10" value="" style="edgeStyle=none;curved=1;rounded=0;orthogonalLoop=1;jettySize=auto;html=1;fontSize=12;startSize=8;endSize=8;entryX=0.5;entryY=0;entryDx=0;entryDy=0;" edge="1" parent="1" source="3i4N--CUoDsbIN8EMX7h-2" target="3i4N--CUoDsbIN8EMX7h-7">
          <mxGeometry relative="1" as="geometry" />
        </mxCell>
        <mxCell id="3i4N--CUoDsbIN8EMX7h-2" value="&lt;font style=&quot;font-size: 20px;&quot;&gt;开始&lt;/font&gt;" style="rounded=1;whiteSpace=wrap;html=1;" vertex="1" parent="1">
          <mxGeometry x="146" y="-138" width="79" height="35" as="geometry" />
        </mxCell>
        <mxCell id="3i4N--CUoDsbIN8EMX7h-11" value="" style="edgeStyle=none;curved=1;rounded=0;orthogonalLoop=1;jettySize=auto;html=1;fontSize=12;startSize=8;endSize=8;" edge="1" parent="1" source="3i4N--CUoDsbIN8EMX7h-7" target="3i4N--CUoDsbIN8EMX7h-8">
          <mxGeometry relative="1" as="geometry" />
        </mxCell>
        <mxCell id="3i4N--CUoDsbIN8EMX7h-7" value="&lt;font style=&quot;font-size: 20px;&quot;&gt;创建数据源&lt;/font&gt;" style="rounded=0;whiteSpace=wrap;html=1;" vertex="1" parent="1">
          <mxGeometry x="130.75" y="-73" width="109.5" height="41" as="geometry" />
        </mxCell>
        <mxCell id="3i4N--CUoDsbIN8EMX7h-13" value="" style="edgeStyle=none;curved=1;rounded=0;orthogonalLoop=1;jettySize=auto;html=1;fontSize=12;startSize=8;endSize=8;entryX=0.5;entryY=0;entryDx=0;entryDy=0;exitX=0;exitY=1;exitDx=0;exitDy=0;" edge="1" parent="1" source="3i4N--CUoDsbIN8EMX7h-8" target="3i4N--CUoDsbIN8EMX7h-12">
          <mxGeometry relative="1" as="geometry" />
        </mxCell>
        <mxCell id="3i4N--CUoDsbIN8EMX7h-16" value="&lt;font style=&quot;font-size: 15px;&quot;&gt;物理机、虚拟机等&lt;/font&gt;" style="edgeLabel;html=1;align=center;verticalAlign=middle;resizable=0;points=[];fontSize=12;" vertex="1" connectable="0" parent="3i4N--CUoDsbIN8EMX7h-13">
          <mxGeometry x="-0.0849" y="1" relative="1" as="geometry">
            <mxPoint x="-14" y="1" as="offset" />
          </mxGeometry>
        </mxCell>
        <mxCell id="3i4N--CUoDsbIN8EMX7h-15" style="edgeStyle=none;curved=1;rounded=0;orthogonalLoop=1;jettySize=auto;html=1;exitX=1;exitY=1;exitDx=0;exitDy=0;entryX=0.5;entryY=0;entryDx=0;entryDy=0;fontSize=12;startSize=8;endSize=8;" edge="1" parent="1" source="3i4N--CUoDsbIN8EMX7h-8" target="3i4N--CUoDsbIN8EMX7h-14">
          <mxGeometry relative="1" as="geometry" />
        </mxCell>
        <mxCell id="3i4N--CUoDsbIN8EMX7h-17" value="&lt;font style=&quot;font-size: 15px;&quot;&gt;K8s容器等公共服务&lt;/font&gt;" style="edgeLabel;html=1;align=center;verticalAlign=middle;resizable=0;points=[];fontSize=12;" vertex="1" connectable="0" parent="3i4N--CUoDsbIN8EMX7h-15">
          <mxGeometry x="-0.3157" y="3" relative="1" as="geometry">
            <mxPoint x="3" y="10" as="offset" />
          </mxGeometry>
        </mxCell>
        <mxCell id="3i4N--CUoDsbIN8EMX7h-8" value="&lt;font style=&quot;font-size: 20px;&quot;&gt;选择数据源类型&lt;/font&gt;" style="rhombus;whiteSpace=wrap;html=1;" vertex="1" parent="1">
          <mxGeometry x="94.5" y="-6" width="182" height="80" as="geometry" />
        </mxCell>
        <mxCell id="3i4N--CUoDsbIN8EMX7h-12" value="&lt;font style=&quot;font-size: 20px;&quot;&gt;配置源拉取安装 Agent&lt;/font&gt;" style="whiteSpace=wrap;html=1;" vertex="1" parent="1">
          <mxGeometry x="44" y="119" width="120" height="60" as="geometry" />
        </mxCell>
        <mxCell id="3i4N--CUoDsbIN8EMX7h-14" value="&lt;font style=&quot;font-size: 20px;&quot;&gt;统一部署 Agent&lt;/font&gt;" style="whiteSpace=wrap;html=1;" vertex="1" parent="1">
          <mxGeometry x="205" y="119" width="120" height="60" as="geometry" />
        </mxCell>
        <mxCell id="3i4N--CUoDsbIN8EMX7h-24" style="edgeStyle=none;curved=1;rounded=0;orthogonalLoop=1;jettySize=auto;html=1;exitX=0.5;exitY=1;exitDx=0;exitDy=0;entryX=0.5;entryY=0;entryDx=0;entryDy=0;fontSize=12;startSize=8;endSize=8;" edge="1" parent="1" source="3i4N--CUoDsbIN8EMX7h-19" target="3i4N--CUoDsbIN8EMX7h-23">
          <mxGeometry relative="1" as="geometry" />
        </mxCell>
        <mxCell id="3i4N--CUoDsbIN8EMX7h-19" value="&lt;font style=&quot;font-size: 20px;&quot;&gt;Agent 启动&lt;/font&gt;" style="rounded=0;whiteSpace=wrap;html=1;" vertex="1" parent="1">
          <mxGeometry x="122.75" y="241" width="125.5" height="50" as="geometry" />
        </mxCell>
        <mxCell id="3i4N--CUoDsbIN8EMX7h-22" value="" style="edgeStyle=none;curved=1;rounded=0;orthogonalLoop=1;jettySize=auto;html=1;fontSize=12;startSize=8;endSize=8;" edge="1" parent="1" source="3i4N--CUoDsbIN8EMX7h-21" target="3i4N--CUoDsbIN8EMX7h-19">
          <mxGeometry relative="1" as="geometry" />
        </mxCell>
        <mxCell id="3i4N--CUoDsbIN8EMX7h-21" value="" style="strokeWidth=2;html=1;shape=mxgraph.flowchart.annotation_1;align=left;pointerEvents=1;direction=north;" vertex="1" parent="1">
          <mxGeometry x="103" y="179" width="168" height="28" as="geometry" />
        </mxCell>
        <mxCell id="3i4N--CUoDsbIN8EMX7h-23" value="&lt;span style=&quot;font-size: 20px;&quot;&gt;检测 Agent 版本&lt;/span&gt;" style="rhombus;whiteSpace=wrap;html=1;" vertex="1" parent="1">
          <mxGeometry x="94.5" y="321" width="182" height="80" as="geometry" />
        </mxCell>
      </root>
    </mxGraphModel>
  </diagram>
</mxfile>
